<svg width="27" height="19" viewBox="0 0 27 19" fill="none" xmlns="http://www.w3.org/2000/svg">
<path d="M26.8202 7.76199L23.8535 1.76865C23.3441 0.719814 22.2952 0.0605469 21.0966 0.0605469H5.87347C4.67481 0.0605469 3.65594 0.689848 3.11654 1.76865L0.149834 7.73202C0.0599334 7.91182 0 8.12159 0 8.30139V16.3624C0 17.7709 1.13873 18.9396 2.57714 18.9396H24.4229C25.8313 18.9396 27 17.8008 27 16.3624V8.33136C26.97 8.12159 26.9101 7.91182 26.8202 7.76199ZM18.6992 7.04279C18.0999 7.04279 17.5905 7.46232 17.4406 8.06166C17.4107 8.18152 16.7214 11.388 13.455 11.388C10.2786 11.388 9.55938 8.42126 9.46948 8.06166C9.34961 7.46232 8.84018 7.04279 8.21088 7.04279H3.35627L5.42397 2.90738C5.51387 2.75755 5.69367 2.60772 5.87347 2.60772H21.0966C21.2764 2.60772 21.4562 2.69762 21.5461 2.90738L23.5838 7.04279H18.6992Z" fill="#F8F8F8"/>
</svg>
