<svg width="88" height="88" viewBox="0 0 88 88" fill="none" xmlns="http://www.w3.org/2000/svg">
<path d="M87.414 38.3351L77.7447 18.8013C76.0843 15.3829 72.6659 13.2341 68.7592 13.2341H19.1432C15.2364 13.2341 11.9156 15.2852 10.1576 18.8013L0.488346 38.2375C0.195338 38.8235 0 39.5072 0 40.0932V66.3662C0 70.9567 3.71143 74.7658 8.39956 74.7658H79.6004C84.1909 74.7658 88 71.0543 88 66.3662V40.1908C87.9023 39.5072 87.707 38.8235 87.414 38.3351ZM60.9456 35.9911C58.9922 35.9911 57.3319 37.3584 56.8435 39.3118C56.7458 39.7025 54.4994 50.1531 43.8535 50.1531C33.5006 50.1531 31.1565 40.4839 30.8635 39.3118C30.4728 37.3584 28.8124 35.9911 26.7614 35.9911H10.939L17.6781 22.5127C17.9711 22.0244 18.5572 21.536 19.1432 21.536H68.7592C69.3452 21.536 69.9312 21.829 70.2242 22.5127L76.8657 35.9911H60.9456Z" fill="#C3C3C3"/>
</svg>
